<svg width="196" height="46" viewBox="0 0 196 46" fill="none" xmlns="http://www.w3.org/2000/svg">
<g clip-path="url(#clip0)">
<path fill-rule="evenodd" clip-rule="evenodd" d="M28.9155 2.60107C33.095 3.37966 36.7202 2.94711 38.9485 6.82274C34.1109 6.82274 31.7211 7.00153 28.9155 2.60107Z" fill="black"/>
<path fill-rule="evenodd" clip-rule="evenodd" d="M37.5399 0C36.2872 6.81695 39.976 4.74649 41.2748 8.8182C42.0945 2.05316 39.6412 4.20436 37.5399 0Z" fill="black"/>
<path fill-rule="evenodd" clip-rule="evenodd" d="M43.9531 3.69092C40.4894 9.70621 44.6746 8.97377 44.5303 13.2473C47.5494 7.134 44.5303 8.34513 43.9531 3.69092Z" fill="black"/>
<path fill-rule="evenodd" clip-rule="evenodd" d="M48.6693 9.26221C43.7221 14.1183 47.9362 14.5451 46.6489 18.6225C51.2151 13.5588 47.9766 13.9049 48.6693 9.26221Z" fill="black"/>
<path fill-rule="evenodd" clip-rule="evenodd" d="M50.9149 16.0967C45.0383 19.782 49.0619 21.0969 46.9375 24.8053C52.4793 20.8374 49.2466 20.4798 50.9149 16.0967Z" fill="black"/>
<path fill-rule="evenodd" clip-rule="evenodd" d="M52.2315 23.0229C45.4947 24.6609 48.8891 27.1812 45.6968 30.0245C52.2141 28.0174 49.2527 26.6563 52.2315 23.0229Z" fill="black"/>
<path fill-rule="evenodd" clip-rule="evenodd" d="M51.0594 30.3361C44.1321 30.0535 46.701 33.4101 42.8506 35.2671C49.6624 35.123 47.1974 33.0006 51.0594 30.3361Z" fill="black"/>
<path fill-rule="evenodd" clip-rule="evenodd" d="M47.9306 36.6626C41.3498 34.4653 42.8795 38.3928 38.6943 39.1137C45.281 40.8785 43.503 38.1506 47.9306 36.6626Z" fill="black"/>
<path fill-rule="evenodd" clip-rule="evenodd" d="M43.2028 42.0669C37.4301 38.2143 37.8746 42.4187 33.6201 41.9919C39.5083 45.4523 38.5153 42.3264 43.2028 42.0669Z" fill="black"/>
<path fill-rule="evenodd" clip-rule="evenodd" d="M37.2107 46.0115C32.9793 40.5211 32.0499 44.6447 28.1533 42.8799C32.6329 48.0185 32.6791 44.76 37.2107 46.0115Z" fill="black"/>
<path d="M38.2674 5.93457C40.3772 7.42201 42.2164 9.25951 43.7052 11.3674C46.1087 14.7479 47.3947 18.7944 47.3833 22.941C47.372 27.0876 46.0638 31.1269 43.6417 34.4942C42.2152 36.4867 40.458 38.2208 38.4463 39.6214C36.8619 40.7811 35.11 41.6931 33.2509 42.3262C31.8973 42.74 30.5044 43.0125 29.0946 43.1394C28.6385 43.1971 28.2056 43.2432 27.8246 43.2836C25.5155 43.5258 25.4289 43.7104 23.7837 45.9596L23.0679 45.8962C24.4649 43.4163 25.273 43.151 27.7611 42.8914L29.0253 42.753C30.4088 42.6208 31.7759 42.3522 33.1066 41.9514C34.9364 41.3342 36.6611 40.4415 38.2212 39.3042C40.203 37.9278 41.9348 36.223 43.3415 34.2636C45.7153 30.9621 46.9969 27.0021 47.0073 22.9372C47.0176 18.8723 45.7561 14.9058 43.3993 11.5923C41.9387 9.52127 40.1325 7.7167 38.0595 6.25754L38.2674 5.93457Z" fill="black"/>
<path fill-rule="evenodd" clip-rule="evenodd" d="M41.2517 8.524C35.8543 12.8783 35.912 8.65088 31.7095 9.4583C37.2686 5.5077 36.5528 8.68548 41.2517 8.524Z" fill="black"/>
<path fill-rule="evenodd" clip-rule="evenodd" d="M46.7761 18.5132C39.924 19.5974 42.0887 15.964 38.0479 14.5683C44.8308 13.9166 42.6256 16.2985 46.7761 18.5132Z" fill="black"/>
<path fill-rule="evenodd" clip-rule="evenodd" d="M47.3535 24.4247C40.4667 23.5942 43.5436 20.6933 40.0396 18.2422C46.7763 19.4822 43.9765 21.172 47.3535 24.4247Z" fill="black"/>
<path fill-rule="evenodd" clip-rule="evenodd" d="M45.8003 30.6533C39.6639 27.4236 43.572 25.8088 41.1821 22.2734C47.0068 25.8088 43.8087 26.4086 45.8003 30.6533Z" fill="black"/>
<path fill-rule="evenodd" clip-rule="evenodd" d="M43.1798 35.0536C37.7939 30.6877 41.9444 29.863 40.2935 25.9297C45.3099 30.5435 42.0541 30.5032 43.1798 35.0536Z" fill="black"/>
<path fill-rule="evenodd" clip-rule="evenodd" d="M38.9309 39.2578C35.1613 33.4386 39.358 33.9403 39.0001 29.6841C42.3483 35.6186 39.2599 34.5747 38.9309 39.2578Z" fill="black"/>
<path fill-rule="evenodd" clip-rule="evenodd" d="M33.7992 41.882C31.698 35.2784 35.6176 36.8702 36.3912 32.6543C38.0537 39.2636 35.3521 37.4469 33.7992 41.882Z" fill="black"/>
<path fill-rule="evenodd" clip-rule="evenodd" d="M27.8301 43.0933C28.0552 36.1726 31.2187 38.9755 33.3488 35.2671C32.7138 42.0494 30.7741 39.4369 27.8301 43.0933Z" fill="black"/>
<path fill-rule="evenodd" clip-rule="evenodd" d="M44.6749 12.9362C38.5789 16.2467 39.3987 12.1 35.1211 12.1346C41.3036 9.25094 40.0279 12.2442 44.6749 12.9362Z" fill="black"/>
<path fill-rule="evenodd" clip-rule="evenodd" d="M23.3156 2.60107C19.142 3.37966 15.5167 2.94711 13.2827 6.82274C18.1202 6.82274 20.5159 7.00153 23.3156 2.60107Z" fill="black"/>
<path fill-rule="evenodd" clip-rule="evenodd" d="M14.6858 0C15.9443 6.81695 12.2498 4.74649 10.9567 8.8182C10.137 2.05316 12.5846 4.20436 14.6858 0Z" fill="black"/>
<path fill-rule="evenodd" clip-rule="evenodd" d="M8.28392 3.69092C11.7475 9.70621 7.56234 8.97377 7.70665 13.2473C4.68754 7.134 7.70665 8.34513 8.28392 3.69092Z" fill="black"/>
<path fill-rule="evenodd" clip-rule="evenodd" d="M3.56197 9.26221C8.50917 14.1183 4.30088 14.5451 5.58241 18.6225C1.02199 13.5588 4.26047 13.9049 3.56197 9.26221Z" fill="black"/>
<path fill-rule="evenodd" clip-rule="evenodd" d="M1.31641 16.0967C7.193 19.782 3.16944 21.0969 5.29956 24.8053C-0.242218 20.8374 2.99048 20.4798 1.31641 16.0967Z" fill="black"/>
<path fill-rule="evenodd" clip-rule="evenodd" d="M0.0170898 23.0229C6.75959 24.6609 3.35947 27.1812 6.55177 30.0245C0.0170898 28.0174 2.97848 26.6563 0.0170898 23.0229Z" fill="black"/>
<path fill-rule="evenodd" clip-rule="evenodd" d="M1.17188 30.3361C8.0991 30.0535 5.53025 33.4101 9.38641 35.2671C2.56887 35.123 5.0338 33.0006 1.17188 30.3361Z" fill="black"/>
<path fill-rule="evenodd" clip-rule="evenodd" d="M4.2832 36.6626C10.8583 34.4653 9.32853 38.3928 13.5195 39.1137C6.93287 40.8785 8.71085 38.1506 4.2832 36.6626Z" fill="black"/>
<path fill-rule="evenodd" clip-rule="evenodd" d="M9.02832 42.0669C14.801 38.2143 14.3565 42.4187 18.611 41.9919C12.7286 45.4523 13.7215 42.3264 9.02832 42.0669Z" fill="black"/>
<path fill-rule="evenodd" clip-rule="evenodd" d="M15.0264 46.0115C19.2577 40.5211 20.1872 44.6447 24.0837 42.8799C19.6041 48.0185 19.5522 44.76 15.0264 46.0115Z" fill="black"/>
<path d="M13.9642 5.93457C11.8544 7.42201 10.0152 9.25951 8.52633 11.3674C6.12281 14.7479 4.83683 18.7944 4.84822 22.941C4.8596 27.0876 6.16778 31.1269 8.58983 34.4942C10.0179 36.4854 11.7748 38.2192 13.7852 39.6214C15.3704 40.78 17.1221 41.692 18.9807 42.3262C20.3344 42.7395 21.7272 43.012 23.137 43.1394L24.407 43.2836C26.7449 43.5258 26.8084 43.7104 28.4479 45.9596L29.1695 45.8962C27.7725 43.4163 26.9585 43.151 24.4705 42.8914L23.2063 42.753C21.8228 42.6202 20.4558 42.3517 19.125 41.9514C17.2957 41.3331 15.5711 40.4405 14.0104 39.3042C12.0303 37.9276 10.3005 36.2229 8.89578 34.2636C6.52286 30.962 5.24122 27.0026 5.22983 22.9381C5.21845 18.8736 6.47789 14.907 8.83228 11.5923C10.2965 9.52248 12.1045 7.7182 14.1778 6.25754L13.9642 5.93457Z" fill="black"/>
<path fill-rule="evenodd" clip-rule="evenodd" d="M10.9854 8.524C16.3828 12.8783 16.3193 8.65088 20.5218 9.4583C14.9685 5.5077 15.6785 8.68548 10.9854 8.524Z" fill="black"/>
<path fill-rule="evenodd" clip-rule="evenodd" d="M5.47803 18.5132C12.3302 19.5974 10.1712 15.964 14.2121 14.5683C7.42342 13.9166 9.62859 16.2985 5.47803 18.5132Z" fill="black"/>
<path fill-rule="evenodd" clip-rule="evenodd" d="M4.87207 24.4247C11.7589 23.5942 8.68204 20.6933 12.1861 18.2422C5.48397 19.4706 8.26064 21.172 4.87207 24.4247Z" fill="black"/>
<path fill-rule="evenodd" clip-rule="evenodd" d="M6.43066 30.6533C12.5728 27.4236 8.65892 25.8088 11.0488 22.2734C5.2184 25.8088 8.41647 26.4086 6.43066 30.6533Z" fill="black"/>
<path fill-rule="evenodd" clip-rule="evenodd" d="M9.05751 35.0536C14.4434 30.6877 10.2929 29.863 11.9439 25.9297C6.92162 30.5435 10.1774 30.5032 9.05751 35.0536Z" fill="black"/>
<path fill-rule="evenodd" clip-rule="evenodd" d="M13.2945 39.2578C17.064 33.4386 12.8615 33.9403 13.2252 29.6841C9.87702 35.6186 12.9596 34.5747 13.2945 39.2578Z" fill="black"/>
<path fill-rule="evenodd" clip-rule="evenodd" d="M18.438 41.882C20.5393 35.2784 16.6196 36.8702 15.8461 32.6543C14.1778 39.2636 16.8794 37.4469 18.438 41.882Z" fill="black"/>
<path fill-rule="evenodd" clip-rule="evenodd" d="M24.401 43.0933C24.1817 36.1726 21.0182 38.9755 18.8823 35.2671C19.5173 42.0494 21.457 39.4369 24.401 43.0933Z" fill="black"/>
<path fill-rule="evenodd" clip-rule="evenodd" d="M7.56201 12.9362C13.658 16.2467 12.8325 12.1 17.11 12.1346C10.9333 9.25094 12.209 12.2442 7.56201 12.9362Z" fill="black"/>
<path fill-rule="evenodd" clip-rule="evenodd" d="M39.3351 10.6118C39.4882 10.6118 39.635 10.6726 39.7433 10.7807C39.8515 10.8889 39.9123 11.0356 39.9123 11.1885V26.8122C39.9133 26.8871 39.8995 26.9616 39.8719 27.0313C39.2312 33.1793 31.0571 37.9892 25.9713 40.8728C20.8856 37.9892 12.6941 33.1677 12.0765 27.0313C12.0469 26.962 12.0312 26.8875 12.0303 26.8122V11.2058C12.0303 11.0529 12.0911 10.9062 12.1994 10.798C12.3076 10.6899 12.4544 10.6291 12.6075 10.6291L39.3351 10.6118Z" fill="black"/>
<path fill-rule="evenodd" clip-rule="evenodd" d="M37.0781 12.7573C37.2087 12.7573 37.3341 12.8088 37.4271 12.9006C37.52 12.9923 37.573 13.117 37.5745 13.2475V26.2297C37.5735 26.2952 37.5597 26.3598 37.5341 26.4201C37.003 31.5241 30.2143 35.5439 25.9887 37.9547C21.7574 35.567 14.9687 31.5472 14.4434 26.4201C14.4197 26.3594 14.408 26.2948 14.4087 26.2297V13.2475C14.4087 13.1175 14.4604 12.9928 14.5524 12.9009C14.6445 12.809 14.7693 12.7573 14.8994 12.7573H37.0781Z" fill="#DB2C29"/>
<path d="M21.2724 23.4669C21.2704 24.1216 21.4041 24.7696 21.6649 25.3701C21.9185 25.9495 22.2766 26.4774 22.7213 26.9273C23.1707 27.3729 23.6992 27.7308 24.2799 27.9827C24.8811 28.2433 25.5296 28.3768 26.1849 28.3749C26.9556 28.3858 27.7196 28.2304 28.4247 27.9193C29.0805 27.6268 29.6464 27.1649 30.0642 26.5813H34.157C33.793 27.4684 33.2988 28.2964 32.6907 29.0381C32.1483 29.6993 31.5055 30.2715 30.7857 30.7337C30.1061 31.1715 29.362 31.5004 28.5806 31.7084C27.7999 31.9211 26.9941 32.0278 26.1849 32.0256C25.0323 32.0344 23.8903 31.8047 22.831 31.3508C21.8179 30.914 20.8943 30.2942 20.1063 29.5226C19.3245 28.7473 18.6994 27.829 18.2648 26.8177C17.8187 25.7568 17.5889 24.6177 17.5889 23.4669C17.5889 22.3162 17.8187 21.177 18.2648 20.1161C18.6992 19.1031 19.3244 18.1829 20.1063 17.4055C20.8945 16.6356 21.8182 16.0178 22.831 15.583C23.89 15.1274 25.0319 14.8956 26.1849 14.9025C26.9774 14.9064 27.7664 15.0071 28.5344 15.2024C29.3249 15.4047 30.0788 15.7297 30.7684 16.1655C31.4962 16.626 32.1501 17.1938 32.7081 17.8496C33.3301 18.5878 33.8291 19.4212 34.1859 20.318H30.0642C29.6235 19.7149 29.024 19.2457 28.3324 18.9627C27.6402 18.6871 26.9011 18.5481 26.1561 18.5532C25.5001 18.5504 24.8509 18.686 24.2511 18.9511C23.6695 19.1989 23.1405 19.5552 22.6924 20.0008C22.2477 20.4529 21.8897 20.9827 21.636 21.5637C21.3741 22.1639 21.2404 22.8122 21.2435 23.4669" fill="white"/>
<path d="M77.1579 25.9587H79.3458C79.3458 28.2944 78.8667 29.7593 77.8968 30.3707C76.927 30.982 74.6699 31.2819 71.1082 31.2819C67.5464 31.2819 65.1969 30.8494 64.2387 29.9958C63.2804 29.1422 62.8013 27.0545 62.8013 23.7498C62.8013 20.4451 63.2746 18.3458 64.2271 17.4807C65.1796 16.6157 67.4714 16.1831 71.1082 16.1831C74.745 16.1831 76.9501 16.483 77.9084 17.0828C78.8667 17.6826 79.3458 19.159 79.3458 21.5006H77.1579C77.1579 19.928 76.8366 18.9803 76.1939 18.6573C75.5474 18.3401 73.856 18.1786 71.1082 18.1786C68.1564 18.1786 66.3996 18.4324 65.8377 18.9399C65.2758 19.4474 64.993 21.0507 64.9891 23.7498C64.9891 26.4258 65.272 28.0234 65.8492 28.5367C66.4265 29.05 68.1583 29.3095 71.1082 29.3095C73.8367 29.3095 75.5031 29.1576 76.1073 28.8539C76.8116 28.5021 77.1579 27.5332 77.1579 25.9702V25.9587ZM93.4081 16.408L101.138 31.0743H98.667L96.9352 27.8158H86.452L84.7202 31.0743H82.2495L89.9791 16.408H93.4081ZM95.9827 25.8664L91.9937 18.1671H91.4165L87.4218 25.8664H95.9827ZM103.776 16.408H106.974L119.576 29.2518V16.3965H121.763V31.0627H118.456L105.964 18.3285V31.0858H103.776V16.408ZM125.926 16.408H141.275V18.3804H134.706V31.0685H132.518V18.3804H125.926V16.408ZM146.234 25.7799V31.0743H144.04V16.3965H157.219C157.767 16.3654 158.314 16.4647 158.816 16.6863C159.318 16.9079 159.76 17.2454 160.106 17.6711C160.818 18.6584 161.172 19.8585 161.11 21.0738C161.173 22.017 160.974 22.9594 160.533 23.7959C160.211 24.264 159.754 24.6223 159.222 24.8225C159.698 25.0019 160.125 25.2903 160.469 25.6646C160.902 26.1626 161.13 26.805 161.11 27.4639V31.0627H158.94V27.4639C158.937 27.2191 158.872 26.9791 158.749 26.7669C158.627 26.5548 158.452 26.3777 158.241 26.2528C157.743 25.9206 157.154 25.7512 156.555 25.7684L146.234 25.7799ZM146.234 18.3804V23.7844H156.342C156.956 23.8329 157.571 23.692 158.103 23.3807C158.68 22.9654 158.94 22.1984 158.94 21.0738C158.94 19.9492 158.668 19.1994 158.126 18.8015C157.591 18.4737 156.967 18.3223 156.342 18.3689L146.234 18.3804ZM175.38 16.408L183.11 31.0743H180.639L178.907 27.8158H168.43L166.698 31.0743H164.227L171.957 16.408H175.38ZM177.955 25.8664L173.966 18.1671H173.389L169.394 25.8664H177.955Z" fill="black"/>
<path d="M187.629 4.53885C188.105 4.45034 188.589 4.40785 189.073 4.41198C189.677 4.35105 190.282 4.5222 190.764 4.89066C190.915 5.03176 191.035 5.20354 191.115 5.3945C191.194 5.58546 191.232 5.79121 191.226 5.99798C191.231 6.33311 191.125 6.66058 190.926 6.93032C190.727 7.20007 190.445 7.39725 190.123 7.49171C190.354 7.5929 190.555 7.75245 190.706 7.95468C190.857 8.15692 190.952 8.39488 190.983 8.64517C191.084 9.19214 191.235 9.72879 191.434 10.2485H190.654C190.478 9.7992 190.347 9.33364 190.262 8.85857C190.089 8.05114 189.777 7.74548 189.107 7.70511H188.397V10.2312H187.629V4.53885ZM188.38 7.19758H189.153C189.962 7.19758 190.47 6.7535 190.47 6.08449C190.47 5.41548 189.927 5.00601 189.125 4.99447C188.874 4.98743 188.624 5.01067 188.38 5.06368V7.19758Z" fill="#231F20"/>
<path d="M189.552 13.7953C188.276 13.7953 187.029 13.417 185.968 12.7084C184.907 11.9998 184.081 10.9926 183.593 9.81448C183.106 8.63633 182.979 7.34016 183.229 6.09005C183.479 4.83994 184.095 3.6921 184.999 2.79185C185.902 1.89161 187.053 1.27943 188.305 1.03282C189.557 0.786205 190.854 0.916247 192.032 1.40649C193.21 1.89673 194.215 2.72512 194.922 3.78678C195.628 4.84845 196.004 6.09566 196 7.37051C195.994 9.07559 195.312 10.7088 194.104 11.9129C192.895 13.1169 191.259 13.7938 189.552 13.7953ZM189.552 1.63781C188.419 1.63781 187.312 1.9735 186.37 2.60241C185.428 3.23131 184.694 4.12518 184.261 5.17092C183.828 6.21666 183.715 7.36729 183.936 8.47724C184.157 9.5872 184.703 10.6066 185.505 11.4065C186.306 12.2064 187.327 12.7508 188.438 12.9709C189.55 13.191 190.701 13.0769 191.748 12.643C192.794 12.2091 193.688 11.4749 194.316 10.5333C194.945 9.59169 195.28 8.485 195.279 7.35321C195.276 5.83733 194.671 4.3845 193.598 3.31315C192.524 2.2418 191.069 1.63934 189.552 1.63781Z" fill="#231F20"/>
</g>
<defs>
<clipPath id="clip0">
<rect width="196" height="46" fill="white"/>
</clipPath>
</defs>
</svg>
